<?xml version="1.0" encoding="utf-8"?>
<!-- Generator: Adobe Illustrator 18.0.0, SVG Export Plug-In . SVG Version: 6.00 Build 0)  -->
<!DOCTYPE svg PUBLIC "-//W3C//DTD SVG 1.1//EN" "http://www.w3.org/Graphics/SVG/1.1/DTD/svg11.dtd">
<svg version="1.1" id="Layer_1" xmlns="http://www.w3.org/2000/svg" xmlns:xlink="http://www.w3.org/1999/xlink" x="0px" y="0px"
	 viewBox="0 0 1178 413.2" style="enable-background:new 0 0 1178 413.2;" xml:space="preserve">
<g style="opacity: 0.3;">
	<path style="fill:#B1B2B1;" d="M1178,413.2c-392.7,0-785.3,0-1178,0c0-3.3,0-6.7,0-10c33.2,0,66.4,0,99.7,0c2.2,0,4.3,0,6.5,0
		c4.5-0.1,8.9-0.1,13.4-0.2c3.4,0,6.9,0,10.3,0c25.4,0,50.9,0,76.3,0.1c1.6,0,3.3,0,4.9,0c3.7,0,7.4-0.1,11.1-0.1c27,0,54,0,81,0.1
		c5,0,10,0,15,0c6,0,11.9,0,17.9,0c2,0,3.9,0,5.9,0c36.1,0,72.3,0.1,108.4,0.1c1.3,0,2.7,0.1,3.8-0.9c1.8,0.3,3.6,0.8,5.4,0.8
		c17,0,33.9-0.1,50.9-0.1c1,0,2,0.1,3.1,0.1c22.2,0,44.3,0,66.5,0c1.1,0,2.2-0.1,3.3-0.1c12,0.1,23.9,0.2,35.9,0.1
		c6.3,0,12.6,0.6,18.9-0.7c1.2,0.8,2.5,0.7,3.8,0.7c41.1,0,82.1-0.1,123.2-0.1c3.4,0,6.7,0,10.1,0c10.5,0,21,0,31.6,0.1
		c27.8,0,55.5,0,83.3,0c19.1,0,38.3-0.2,57.4,0.1c4.7,0.1,6.3-1.5,5.7-6c-0.2-2,0-4,0-6c0-7,0-7,6.8-7c3,0,6,0,9,0
		c13.1,0,13.1,0,13.2,12.9c0,0.5,0.1,1,0,1.5c-0.4,3.5,1.1,4.6,4.5,4.6c18.1-0.2,36.3-0.1,54.4-0.2c13.7,0,27.3,0,41,0
		c3.4,0,6.9,0,10.3,0.1c28.5,0,57.1,0,85.6,0C1178,406.5,1178,409.9,1178,413.2z"/>
	<path style="fill:#7D7F77;" d="M890,403.2c-27.8,0-55.5,0-83.3,0c0-17.7,0.1-35.3,0-53c0-3.9,1.1-5.2,5.1-5.1
		c8.2,0.3,16.3,0.1,24.5,0.1c7.7,0,6.8,0.9,6.8-7.1c0-53,0-106,0-159c0-18.3-0.1-36.7,0.1-55c0-3.7-0.7-5.8-4.9-5.1
		c-3.4,0.6-4.3-1.3-4.1-4.4c0.2-3.3,0.2-6.7,0-10c-0.3-3.5,1-4.6,4.5-4.6c22.8,0.2,45.7,0.1,68.5,0.1c0,3.3,0.1,6.6,0.1,9.9
		c0,8.8,0,8.8,8.9,9c0,0.7,0.1,1.4,0.1,2.1c-0.1,16.8-0.2,33.6-0.1,50.5c0,57.1,0.1,114.3,0.1,171.4c-0.1,0.6-0.2,1.3-0.2,1.9
		c-6.8,0.1-13.6,0.4-20.4,0.1c-4.2-0.2-5.7,0.8-5.6,5.4C890.2,368,890,385.6,890,403.2z M879,141.1c8.2,0,16.3-0.1,24.5,0.1
		c3.3,0.1,4.6-1.2,4.4-4.4c-0.1-1.3-0.2-2.7,0-4c0.6-4.3-0.9-5.8-5.4-5.7c-14,0.3-27.9,0-41.9,0.1c-10.8,0.1-9.2-2.4-9.5,9.9
		c-0.1,3.1,1.1,4,4.1,4C863,141,871,141.1,879,141.1z M880,215.2c-6.8,0-13.6-0.1-20.5,0c-9.8,0.1-8.3-1.6-8.6,8.9
		c-0.1,3.9,1,5.2,5,5.1c14.1-0.2,28.3,0,42.4-0.1c10.1-0.1,9.4,2.3,9.5-10.2c0-2.8-1.1-3.8-3.9-3.7C896,215.3,888,215.2,880,215.2z
		 M879.4,149.2c-6.3,0-12.6-0.1-19,0c-10.9,0.2-9.2-2-9.5,9.4c-0.1,3.6,1.2,4.6,4.6,4.5c14.3-0.2,28.6,0,42.9-0.1
		c10-0.1,9.2,1.9,9.4-9.8c0-3.4-1.4-4.2-4.5-4.1C895.4,149.3,887.4,149.2,879.4,149.2z M879,273.1c8.2,0,16.3-0.1,24.5,0.1
		c3.3,0.1,4.6-1.2,4.4-4.4c-0.1-1.3-0.2-2.7,0-4c0.6-4.3-0.9-5.8-5.5-5.7c-14,0.3-27.9,0-41.9,0.1c-10.8,0.1-9.2-2.4-9.5,9.9
		c-0.1,3.1,1.1,4,4.1,4C863,273,871,273.1,879,273.1z M879.5,185.1c6.3,0,12.6,0.1,19,0c9.9-0.1,9.1,1.7,9.4-9.4
		c0.1-4-1.6-4.6-5-4.6c-14.1,0.2-28.3,0-42.4,0.1c-10.8,0.1-9.1-2.1-9.5,9.5c-0.1,3.6,1.3,4.5,4.6,4.5
		C863.5,185,871.5,185.1,879.5,185.1z M879.5,317.1c6.3,0,12.6,0.1,19,0c10-0.1,9.1,1.7,9.4-9.4c0.1-4-1.5-4.6-5-4.6
		c-14.1,0.2-28.3-0.1-42.4,0.1c-10.8,0.1-9.2-2.4-9.5,10c-0.1,3.1,1.2,4,4.1,4C863.2,317,871.4,317.1,879.5,317.1z M879.5,193.2
		c-6.7,0-13.3-0.1-20,0c-9.8,0.1-8.2-1.6-8.6,8.9c-0.1,3.9,1,5.2,5,5.1c14.1-0.2,28.3-0.1,42.4-0.1c10.1,0,10,0,9.5-10.3
		c-0.1-2.8-1.2-3.7-3.9-3.7C895.8,193.3,887.6,193.2,879.5,193.2z M879.5,281.2c-6.7,0-13.3-0.1-20,0c-9.8,0.1-8.2-1.6-8.6,8.9
		c-0.1,3.9,1,5.2,5,5.1c14.1-0.2,28.3-0.1,42.4-0.1c10.1,0,10,0,9.5-10.3c-0.1-2.8-1.2-3.7-3.9-3.7
		C895.8,281.3,887.6,281.2,879.5,281.2z M879.5,251.1c6.3,0,12.6,0.1,19,0c9.9-0.1,9.1,1.7,9.4-9.4c0.1-4-1.6-4.6-5-4.6
		c-14.1,0.2-28.3,0-42.4,0.1c-10.8,0.1-9.1-2.1-9.5,9.5c-0.1,3.6,1.3,4.5,4.6,4.5C863.5,251,871.5,251.1,879.5,251.1z M880,325.2
		c-6.8,0-13.6-0.1-20.5,0c-9.8,0.1-8.3-1.6-8.6,8.9c-0.1,3.9,1,5.2,5,5.1c14.1-0.2,28.3,0,42.4-0.1c10.1-0.1,9.4,2.3,9.5-10.2
		c0-2.8-1.1-3.8-3.9-3.7C896,325.3,888,325.2,880,325.2z M815.9,361.7c0,11.3,0,11.2,11.3,10.3c2.5-0.2,3.7-1.1,3.6-3.6
		c-0.1-3.7-0.3-7.3,0.1-11c0.4-4.3-1.4-5.4-5.4-5.2C814.2,352.6,816.1,350.8,815.9,361.7z M854.8,362.2c0-2.3,0-4.7,0-7
		c0-1.4-0.2-2.8-2-2.9c-3.7-0.1-7.3-0.1-11,0c-1.8,0.1-1.9,1.6-1.9,3c0,4.5,0,9,0,13.5c0,1.7,0.5,2.7,2.4,3.1
		C852.3,374,854.8,372.1,854.8,362.2z M864,362.1c0.3,11.2-2.5,9.7,10.5,9.9c0.2,0,0.3,0,0.5,0c2.8,0.2,3.8-1.3,3.8-3.9
		c-0.1-4.1,0-8.3,0-12.4c0-1.9-0.5-3-2.7-3.3C865.4,350.6,864,351.7,864,362.1z"/>
	<path style="fill:#E1E6DC;" d="M916.1,343.1c0-57.1-0.1-114.3-0.1-171.4c0-16.8,0.1-33.6,0.1-50.5c32.6,0,65.2,0,97.7,0
		c0,74,0,148,0,222C981.3,343.2,948.7,343.2,916.1,343.1z M966,317.1c11.1,0,22.3-0.1,33.4,0.1c3.4,0,5-1,4.6-4.5
		c-0.1-1.1-0.2-2.4,0-3.5c0.8-4.9-1.3-6.1-6.1-6.1c-21.6,0.2-43.3,0.3-64.9,0c-4.9-0.1-6.7,1.5-6,6.2c0.1,1,0.1,2,0,3
		c-0.3,3.7,1.3,5,5,4.9C943.4,317,954.7,317.1,966,317.1z M966,281.2c-11.3,0-22.6,0-33.9,0c-1.4,0-3.5-0.7-4.2,0.8
		c-1.5,3.6-1.1,7.6-0.4,11.2c0.6,2.8,3.6,1.8,5.6,1.8c20.6,0.1,41.3,0.1,61.9,0c10.1,0,8.8,1.5,9.1-9c0.1-4.1-1.4-5.1-5.2-5
		C988,281.3,977,281.2,966,281.2z M966,251.1c11.1,0,22.3-0.1,33.4,0.1c3.4,0,5-1,4.6-4.5c-0.1-1.1-0.2-2.4,0-3.5
		c0.8-4.9-1.4-6.1-6.1-6.1c-21.6,0.2-43.3,0.3-64.9,0c-4.9-0.1-6.7,1.5-6,6.2c0.1,0.8,0.1,1.7,0,2.5c-0.5,4.2,1.4,5.5,5.5,5.4
		C943.7,251,954.9,251.1,966,251.1z M966,259.2c-11.3,0-22.6,0-33.9,0c-1.4,0-3.5-0.7-4.2,0.8c-1.6,3.6-1.1,7.6-0.4,11.2
		c0.6,2.8,3.6,1.9,5.6,1.9c20.6,0.1,41.3,0.1,61.9,0c10.1,0,8.8,1.5,9.1-9c0.1-4.1-1.3-5.1-5.2-5C988,259.3,977,259.2,966,259.2z
		 M965.5,339.1c11.3,0,22.6-0.1,33.9,0.1c3.4,0,5-1,4.6-4.6c-0.1-1.1-0.2-2.3,0-3.5c0.7-4.9-1.4-6.1-6.1-6.1
		c-21.5,0.2-42.9,0.1-64.4,0.1c-6.4,0-6.4,0-6.4,6.6c0,0.7,0.1,1.3,0,2c-0.5,4.2,1.4,5.5,5.5,5.4C943.6,339,954.6,339.1,965.5,339.1
		z M966,215.2c-11.3,0-22.6,0-33.9,0c-1.4,0-3.5-0.7-4.2,0.8c-1.5,3.6-1.1,7.6-0.4,11.2c0.6,2.8,3.6,1.9,5.6,1.9
		c20.6,0.1,41.3,0.1,61.9,0c10.1,0,8.8,1.5,9.1-9c0.1-4.1-1.3-5.1-5.2-5C988,215.3,977,215.2,966,215.2z M965.7,193.2
		c-11.3,0-22.6,0.1-33.9-0.1c-3.4,0-5,1-4.6,4.5c0.1,1,0.1,2,0,3c-0.7,4.9,1.1,6.7,6.3,6.6c20.5-0.3,40.9-0.1,61.4-0.1
		c10.3,0,9,1.7,9.3-9.3c0.1-3.9-1.5-4.7-5-4.7C988,193.3,976.8,193.2,965.7,193.2z M966,185.1c11.1,0,22.3-0.1,33.4,0.1
		c3.4,0,5.1-0.9,4.6-4.5c-0.1-1.1-0.2-2.4,0-3.5c0.8-4.9-1.3-6.2-6.1-6.1c-21.8,0.2-43.6,0.2-65.4,0c-4.5,0-6.1,1.3-5.5,5.7
		c0.2,1.1,0.1,2.3,0,3.5c-0.3,3.7,1.3,5,4.9,4.9C943.4,185,954.7,185.1,966,185.1z M965.5,163.1c11.3,0,22.6-0.1,33.9,0.1
		c3.4,0,5.1-0.9,4.6-4.5c-0.1-1.1-0.2-2.3,0-3.5c0.7-4.9-1.3-6.2-6.1-6.1c-21.8,0.2-43.6,0.2-65.4,0c-4.5,0-6.1,1.3-5.5,5.7
		c0.2,1.1,0.1,2.3,0,3.5c-0.3,3.7,1.3,5,4.9,4.9C943.2,163,954.3,163.1,965.5,163.1z M965.6,127.2c-10.5,0-21,0-31.4,0
		c-7,0-7,0-7,6.5c0,7.4,0,7.4,6.9,7.4c20.3,0,40.6,0.1,60.9,0c10.2,0,8.9,1.7,9.2-9.4c0.1-3.5-1.1-4.7-4.6-4.6
		C988.2,127.3,976.9,127.2,965.6,127.2z"/>
	<path style="fill:#23659A;" d="M341.9,403.1c-2,0-3.9,0-5.9,0c0-5.3,0.1-10.6,0.1-15.9c0-13.4,0-13.3-13.5-13.1
		c-3.5,0.1-4.7,1.1-4.6,4.6c0.2,8.1,0.1,16.3,0.1,24.4c-5,0-10,0-15,0c0-11.7-0.1-23.4-0.1-35.1c0.4-0.9,0.9-1.9,0.3-2.9
		c0.6-1.9,0.5-3.9,0.1-5.8c0.1-4.4,0.1-8.8,0.2-13.3c0.7-2.8-0.5-3.9-3.4-3.9c-24.9,0.1-49.7,0.1-74.6,0c-2.9,0-4,1.1-3.4,3.9
		c0.1,2.8,0.1,5.5,0.2,8.3c-0.4,3.6-0.5,7.2,0,10.8c0,1-0.1,2-0.1,2.9c0,11.7-0.1,23.3-0.1,35c-3.7,0-7.4,0.1-11.1,0.1
		c0-18.6-0.2-37.2,0-55.8c0-4-1.2-5.1-5.1-5.1c-23.6,0.2-47.2,0.2-70.8,0c-3.8,0-5.7,0.9-5,5c-0.1,18.6-0.2,37.3-0.3,55.9
		c-3.4,0-6.9,0-10.3,0c0-26.6,0-53.3-0.1-79.9c0-3.7,0.9-5.5,5.1-5.1c3.5,0.3,7,0,10.5-0.1c2.4,0,4.8,0,7.1,0.1
		c8.6,0,17.1-0.1,25.7-0.1c18.4,0.4,36.8,0.5,55.3,0.1c14.7,0,29.3,0,44,0c5.7,0,11.4,0,17.1,0c8.1,0.1,16.1,0.1,24.2,0.2
		c0.6,0,1.3,0,1.9,0c1.7-0.3,2.6,0.6,2.9,2.2c0.1,0.2,0.1,0.4,0,0.6c-1.7,1.4-1.4,3.6-0.9,5c1.4,4.4,0.3,8.9,0.9,13.3
		c0.1,0.3,0.1,0.5,0,0.8c0,2.7,0,5.5,0,8.2c0.1,0.3,0.1,0.5,0,0.8c-0.3,7-0.3,7,6.6,7c6.2,0,12.3,0.2,18.5-0.1c3.1-0.1,3.9,1,3.9,4
		C341.8,374.4,341.9,388.7,341.9,403.1z M170.3,339.2c0.7,0,1.3-0.1,2,0c3.5,0.5,4.6-1,4.6-4.5c0-3.6-1.3-4.8-4.7-4.5
		c-1.1,0.1-2.3,0.1-3.5,0c-3.7-0.5-4.8,1.1-4.9,4.8C163.7,340.6,167.5,339,170.3,339.2z M262.8,339.2c3.3,0.3,6.5,0.9,6.4-4.6
		c-0.1-5-3-4.3-5.9-4.2c-2.9,0.1-6.4-1.3-6.4,4.2C256.8,339.6,259.4,339.5,262.8,339.2z"/>
	<path style="fill:#E1E6DC;" d="M890,403.2c0-17.6,0.2-35.1-0.1-52.7c-0.1-4.6,1.4-5.6,5.6-5.4c6.8,0.3,13.6,0,20.4-0.1
		c32.7,0,65.4,0,98,0.1c7,0,14,0.3,21,0c4.7-0.2,6.4,1.1,6.3,6c-0.3,17.3-0.1,34.6-0.1,52c-18.1,0-36.3,0-54.4,0.2
		c-3.5,0-5-1.1-4.5-4.6c0.1-0.5,0-1,0-1.5c0-12.9,0-12.9-13.2-12.9c-3,0-6,0-9,0c-6.8,0-6.8,0-6.8,7c0,2-0.2,4,0,6
		c0.5,4.5-1,6.1-5.7,6C928.3,403,909.1,403.2,890,403.2z M912.9,361.8c0-1.5,0-3,0-4.5c0-0.7,0-1.3,0-2c0.1-3.4-2.5-3.4-4.5-2.9
		c-3.5,0.9-8.1-2.8-10.4,2.6c-0.1,0.1,0,0.3,0,0.5c0,4.5,0,9,0,13.5c0,1.7,0.5,2.7,2.4,3.1c9.9,2.1,12.5,0.1,12.5-9.8
		C912.9,362.1,912.9,361.9,912.9,361.8z M985,361.7c-0.2-10.8,1.7-9.2-9.6-9.5c-4.1-0.1-5.9,1.1-5.4,5.3c0.3,2.5,0,5,0,7.5
		c0,7.1,0,7.1,7.2,7.1c8.7,0,7.6,0.6,7.7-7.9C985,363.4,985,362.5,985,361.7z M1009,362.6c0-2-0.1-4,0-6c0.3-3.1-0.8-4.5-4.2-4.4
		c-13.1,0.3-10.5-1.5-10.8,10.3c0,1.3,0.1,2.7,0,4c-0.4,4,1.1,5.7,5.3,5.6C1010.8,371.8,1008.8,373.2,1009,362.6z M1033,362.3
		c0-1.8-0.2-3.7,0-5.5c0.3-3.5-1-4.7-4.5-4.6c-12.4,0.3-10.1-1.5-10.4,10.2c0,2,0,4,0,6c0,2.5,1.2,3.4,3.6,3.7
		C1032.7,373.2,1033,373,1033,362.3z M922.1,361.7c0,2,0.1,4,0,6c-0.2,3.2,1.3,4.3,4.4,4.4c10.5,0.4,10.5,0.5,10.5-9.8
		c0-1.5-0.2-3,0-4.5c0.6-4.2-0.9-5.9-5.4-5.7C920.5,352.6,922.2,350.9,922.1,361.7z M960.9,361.7c0-1.5-0.2-3,0-4.5
		c0.5-3.9-1.1-5.2-5-5.1c-11.6,0.4-9.7-1.3-9.9,9.6c0,2.2,0,4.3,0,6.5c0,2.4,1,3.5,3.5,3.8c10.6,1.2,11.4,0.6,11.4-9.8
		C960.9,362.1,960.9,361.9,960.9,361.7z"/>
	<path style="fill:#929DA5;" d="M450.2,374.4c0-54.4,0-108.8,0-163.2c8.6,0,17.2,0,25.8,0c-0.7,5.4-3,9.6-8.7,10.8
		c-3,0.6-2.2,2.9-2.2,4.7c0,17.8,0.1,35.6-0.1,53.4c-0.1,4.3,1.4,5.3,5.4,5.3c20.1-0.2,40.3-0.1,60.4-0.1c11.8,0,23.6,0.2,35.4,0.3
		c-0.4,2.3-3.1,2.6-4,4.4c-1,0.1-2.1,0.2-3.1,0.3c-30.1,0-60.2-0.1-90.3-0.2c-3.2,0-3.8,1.4-3.8,4.2c0.1,25.6,0.1,51.2,0.2,76.8
		c-0.3,1-0.5,2.1-0.8,3.1C459.5,375.4,454.8,374.1,450.2,374.4z"/>
	<path style="fill:#C2C5BF;" d="M562,290c0.9-1.8,3.6-2.1,4-4.4c0.3-0.2,0.6-0.3,1-0.5c19.1,0.1,38.2,0.1,57.3,0.2
		c2.8,0,3.8-0.9,3.8-3.7c-0.1-9.2-0.2-18.5,0.1-27.7c0.2-7.2-1.1-14.5,0.9-21.7c1.6-1.1,3.3-2.1,4.7-3.4c2.8-2.4,5-5.7,9.3-5.7
		c0,47.3,0,94.7,0,142c-4.9,0-9.7,0-14.6,0c-0.1-2.3-0.4-4.6-0.4-6.9c0.1-20.8,0-41.6,0.4-62.4c0.1-4.8-1.7-5.7-6-5.7
		C602.3,290.2,582.2,290.1,562,290z"/>
	<path style="fill:#66804F;" d="M1083.2,368.7c-13.7-1.9-23.9-13-24.2-26.2c-0.3-14.5,8.8-26.2,22.3-29c13.4-2.7,27,4.8,31.8,17.5
		c5,13.1-0.2,27.5-12.3,34.5c-2.7,1.5-5.5,3.1-8.9,2.7c0.5-4,4.7-6,5.2-9.9c0.1-0.1,0.1-0.3,0.2-0.4c-0.1,0.1-0.2,0.3-0.2,0.4
		c-0.9,0.4-1.9,0.6-2.6,1.3c-3.8,3.6-4.9,1.8-5.7-2.3c-0.4-1.9-0.1-4.3-2.1-6.4c-0.6,3.4-0.5,6.6-1.9,9c-2.3,4.1-4.6-2.1-7.4-0.8
		C1078.6,362.8,1082.2,365,1083.2,368.7z"/>
	<path style="fill:#66804F;" d="M766.2,368.8c-14.4-2.1-24.3-13.3-24.4-27.6c0-14,10.2-26.1,23.7-27.9c14.2-1.9,27.4,6.6,31.2,20
		c3.9,13.6-2.8,27.8-15.7,33.5c-1.9,0.8-3.9,1.9-6.2,1.3c0.3-3.6,4.3-5.7,4.7-9.9c-1.1,0.6-1.7,0.8-2.2,1.2
		c-3.2,2.7-5.2,3.2-5.7-2.1c-0.2-2.2-0.1-4.9-2.1-7c-0.7,3.4-0.4,7.2-2.1,9.5c-2.9,4-4.8-2.5-8-1.8
		C760.8,362.1,764.7,364.7,766.2,368.8z"/>
	<path style="fill:#E1E6DC;" d="M916,119.1c-8.9-0.2-8.9-0.2-8.9-9c0-3.3-0.1-6.6-0.1-9.9c4.3,0,8.6-0.1,13-0.1c5.3,0,10.6,0,15.8,0
		c27.8,0,55.5,0.2,83.3,0c4.6,0,6.5,1.4,5.8,5.9c-0.1,0.8,0,1.7,0,2.5c0.1,12.5-0.2,10.6-10.9,10.6c-1.6-1.3-3.5-0.9-5.3-0.9
		c-29.2,0-58.3,0-87.5,0C919.5,118.2,917.6,117.8,916,119.1z"/>
	<path style="fill:#436633;" d="M450.2,374.4c4.7-0.2,9.4,1,14.1-0.1c2,0.2,3.9,0.6,5.9,0.6c11.8,0.1,23.5,0.1,35.3,0
		c3.6-0.1,5,1,4.9,4.8c-0.2,7.8,0,15.6,0,23.4c-17,0.1-33.9,0.1-50.9,0.1c-1.8,0-3.6-0.5-5.4-0.8c-10.9-3.9-15.3-12.3-16.2-23.3
		c-0.3-3,0.3-4.7,3.9-4.4C444.5,374.9,447.3,374.5,450.2,374.4z"/>
	<path style="fill:#436633;" d="M638,402.4c-6.2,1.3-12.6,0.7-18.9,0.7c-12,0.1-23.9-0.1-35.9-0.1c0-7.5,0.2-14.9-0.1-22.4
		c-0.2-4.7,1.4-5.8,5.9-5.8c13.1,0.1,26.2,0.6,39.3-0.3c5,0.7,9.9,0.7,14.9,0c3,0.1,6,0.4,8.9,0.2c3.1-0.2,4,0.9,3.8,4
		C655.1,390.5,649.3,398.3,638,402.4z"/>
	<path style="fill:#C2C5BF;" d="M612,199.2c12.8,0,25.6,0,38.3,0.1c2.4,0,5.6-1.2,5.7,3.3c0.1,4.4-2.9,3.5-5.5,3.6c-0.5,0-1,0-1.5,0
		c-68.1,0-136.1,0-204.2,0c-1.8-0.1-3.7,0.1-5.4-0.4c-2.1-0.6-1.4-2.7-1.3-4.3c0.1-2.4,2-2.3,3.6-2.3c9.9-0.1,19.9-0.1,29.8-0.2
		c0.9,0.3,1.8,0.9,2.8,1c11.3,0.8,22.5-1.4,33.8-0.9c2.6,0.1,2.9-1.6,2.9-3.6c0-3.8,0-7.6,0-11.4c2,3.4,0.9,7.1,0.9,10.7
		c0,3.5,1.3,4.6,4.7,4.5c8.4-0.2,16.9-0.1,25.3-0.2c1.7,1.6,3.8,1,5.7,1c15.8,0,31.6,0,47.4,0C600.6,199.6,606.4,201.2,612,199.2z"
		/>
	<path style="fill:#AFB3A8;" d="M444.9,206.2c68.1,0,136.1,0,204.2,0c0.8,5.1-2.6,5.1-6.1,5c-8.4,0-16.8,0.1-25.2,0.1
		c-3.8,0.5-8.3-2.4-11.3,2.2c-0.5,0.7-1.4,0.4-2.2-0.2c-4.6-3.2-5.9-3.2-10.7,0.1c-0.8,0.5-1.5,0.7-2.2,0c-3.5-3.5-7.1-3.9-10.7-0.1
		c-0.9,0.9-1.7,0.7-2.5-0.1c-3.4-3.4-6.9-3.5-10.4,0c-1.3,1.3-2.1,0.7-3.3-0.3c-3.2-2.7-6.6-3.2-9.7,0.2c-1.3,1.3-2.1,0.8-3.3-0.2
		c-3.2-2.7-6.6-3.2-9.7,0.2c-1.3,1.4-2.1,0.8-3.3-0.2c-3.2-2.8-6.6-3-9.7,0.2c-1.2,1.2-2.2,1.2-3.4,0c-3.4-3.3-6.7-3.1-10.1,0
		c-1,1-2.2,1.2-2.9-0.1c-1.9-3.5-5.8-2.7-7.4-1.7c-3.2,2.1-5.2,1.6-8.3,0c-1.9-1-5.6-1.6-7.5,1.8c-0.4,0.8-1.8,1.2-2.1,0.6
		c-2.9-4.6-7.4-2.1-11.2-2.6c-8.6,0-17.2,0-25.8,0C446.4,211.6,444.3,210.4,444.9,206.2z"/>
	<path style="fill:#929DA5;" d="M223,317.9c-18.4,0.4-36.8,0.3-55.3-0.1c1.6-9.9,8.4-16.3,18.3-16.5c11-0.2,22,0.1,33-0.1
		c3.2,0,4,1.4,3.9,4.2C222.8,309.6,222.9,313.8,223,317.9z"/>
	<path style="fill:#C2C5BF;" d="M114,290.2c-2.7,0-5.3,0-8,0c-2,0-4,0-6.1,0c-0.8,0-1.7,0-2.5,0c-12.3-0.1-12.3-0.1-12.3-12.7
		c0-5.7,0.1-11.3,0-17c-0.1-3.3,1.2-4.4,4.4-4.3c8.2,0.1,16.3,0,24.5,0C113.9,267.5,113.9,278.8,114,290.2z M105.5,263.6
		c-3.4,0.1-6.4,1.7-7.3,4.8c-1.3,4.3-3.9,7.1-7,9.9c-1.2,1-2.9,2.5-1.3,4.2c1.7,1.8,3.3,0.3,4.6-1.1c2.7-2.9,5.2-5.7,9.5-6.8
		c3-0.8,5.2-3.7,4.8-7.2c-2.5-0.3-3,4.5-5.4,2.1C100.7,266.9,105.9,266.2,105.5,263.6z"/>
	<path style="fill:#333432;" d="M935.9,100.1c-5.3,0-10.6,0-15.8,0c0.4-2.8-1.5-6.2,2.7-7.8c0.5-0.2,0.3-2.5,0.3-3.8
		c0-15.7,0-31.3,0.1-47c0-2-1.3-4.7,2.4-5.5c1.3-0.3,0.7-2.4,0.7-3.6c0-9-0.1-18,0.1-27c0-1.9-1.6-5.3,1.5-5.4
		c3.3-0.1,1.7,3.4,1.7,5.2c0.2,8.7,0,17.3,0.1,26c0,2.1-1.1,4.6,2.4,5.6c1.5,0.4,0.8,2.7,0.8,4.1c0,15.3,0,30.6,0.1,46
		c0,2.5-1.2,5.3,2.4,7.1C936.9,94.7,935.6,98,935.9,100.1z"/>
	<path style="fill:#929DA5;" d="M511,184.1c0,3.8,0,7.6,0,11.4c0,2-0.4,3.7-2.9,3.6c-11.3-0.5-22.5,1.7-33.8,0.9
		c-0.9-0.1-1.8-0.6-2.8-1c0.1-3.1,0.4-6.3,0.1-9.4c-0.5-4.8,1.6-5.9,6-5.8C488.8,184.2,499.9,184.1,511,184.1z"/>
	<path style="fill:#B1B2B1;" d="M595,200.2c-15.8,0-31.6,0-47.4,0c-1.9,0-4,0.5-5.7-1c1.6-7.4,4.4-9.9,11.8-9.9
		c13.7-0.1,27.4,0,41.2-0.1C594.9,192.8,595,196.5,595,200.2z"/>
	<path style="fill:#7D7F77;" d="M106.1,403.2c-2.2,0-4.3,0-6.5,0c0-29.3,0.1-58.5,0.1-87.8c2.6-2,2.7-6,6.1-7.3
		c0.1,12.1,0.2,24.2,0.3,36.3C106.2,364,106.1,383.6,106.1,403.2z"/>
	<path style="fill:#353528;" d="M766.2,368.8c-1.5-4-5.4-6.6-6.8-10.9c3.2-0.7,5.1,5.8,8,1.8c1.7-2.3,1.4-6,2.1-9.5
		c2.1,2.1,1.9,4.8,2.1,7c0.6,5.3,2.6,4.8,5.7,2.1c0.5-0.4,1.1-0.6,2.2-1.2c-0.4,4.2-4.4,6.3-4.7,9.9c-2.1,1.1-1.5,3-1.4,4.8
		c0.6,10.1,1.1,20.2,1.6,30.2c-3.4,0-6.7,0-10.1,0c0.5-10.5,1.1-21,1.6-31.5C766.7,370.6,766.9,369.6,766.2,368.8z"/>
	<path style="fill:#353528;" d="M1083.2,368.7c-1-3.7-4.7-5.9-5.9-9.8c2.8-1.3,5.1,4.9,7.4,0.8c1.4-2.4,1.2-5.6,1.9-9
		c2,2.1,1.7,4.4,2.1,6.4c0.8,4.2,1.9,6,5.7,2.3c0.7-0.6,1.7-0.9,2.6-1.3l0,0c-0.4,4-4.7,6-5.2,9.9c-1.7,1.1-1.4,2.8-1.3,4.4
		c0.6,10.2,1.2,20.4,1.8,30.6c-3.4,0-6.9,0-10.3-0.1c0.5-9.7,1-19.4,1.6-29.1C1083.7,372.2,1084.3,370.4,1083.2,368.7z"/>
	<path style="fill:#929DA5;" d="M617.8,211.3c8.4,0,16.8-0.1,25.2-0.1c0,4,0,8,0,12c-4.3-0.1-6.5,3.3-9.3,5.7
		c-1.5,1.3-3.2,2.3-4.7,3.4c-0.3,0-0.5-0.1-0.8-0.2c0-2,0-4,0.1-6c0.1-2.2-0.3-3.7-2.9-4.4C620.3,220.3,618.1,216.4,617.8,211.3z"/>
	<path style="fill:#C2C5BF;" d="M916,119.1c1.6-1.4,3.5-0.9,5.3-0.9c29.2,0,58.3,0,87.5,0c1.8,0,3.7-0.4,5.3,0.9
		c0,0.7-0.1,1.4-0.1,2.1c-32.6,0-65.2,0-97.7,0C916.1,120.5,916.1,119.8,916,119.1z"/>
	<path style="fill:#929DA5;" d="M284,317.9c-5.7,0-11.4,0-17.1,0c0.1-2.5,0-5,0.2-7.4c0.5-5.2,3.9-8.4,8.7-8.2c5,0.1,7.8,3.2,8,8.8
		C284,313.3,284,315.6,284,317.9z"/>
	<path style="fill:#E1E6DC;" d="M595,200.2c0-3.7-0.1-7.4-0.1-11.1c0.1-2,1.1-2.9,3.1-2.9c3.5,0.1,6.9,0.1,10.4,0
		c2.6-0.1,3.6,1.1,3.5,3.6c-0.1,3.1,0,6.3,0,9.4C606.4,201.2,600.6,199.6,595,200.2z"/>
	<path style="fill:#929DA5;" d="M114,290.2c0-11.4,0-22.7-0.1-34.1c5.2-1.3,5.9-0.8,6,4.3c0.1,8.1-0.3,16.2,0.1,24.3
		C120.2,289.6,118.3,291,114,290.2z"/>
	<path style="fill:#AFB3A8;" d="M1013.9,345.1c-32.7,0-65.4,0-98-0.1c0.1-0.6,0.2-1.3,0.2-1.9c32.6,0,65.2,0.1,97.8,0.1
		C1013.9,343.9,1013.9,344.5,1013.9,345.1z"/>
	<path style="fill:#929DA5;" d="M142,317.9c-2.4,0-4.8,0-7.1-0.1c-0.3-5.4,1.1-10.8-0.9-16.1c-1-2.5,2-3.4,3.1-5.1
		c0.9-1.2,2-1.1,2.8,0c1.1,1.6,4.1,2.5,3.1,5.1C140.8,307.1,142.3,312.6,142,317.9z"/>
	<path style="fill:#B1B2B1;" d="M643.1,374.5c-5,0.7-9.9,0.7-14.9,0c0-3.1,0.1-6.3,0.1-9.4c4.9,0,9.7,0,14.6,0
		C643,368.3,643.1,371.4,643.1,374.5z"/>
	<path style="fill:#66804F;" d="M105.8,308.1c-3.4,1.3-3.5,5.3-6.1,7.3c-0.3-8.4-0.5-16.8,0.1-25.2c2,0,4,0,6.1,0
		C106.3,296.2,106.4,302.2,105.8,308.1z"/>
	<path style="fill:#0C283E;" d="M313,340.1c0.1-0.3,0.1-0.5,0-0.8c1.3,0.1,2.4-0.1,2.4-1.7c0-5,0-9.9,0-14.9c0-1.7-1.3-1.6-2.4-1.8
		c0.1-0.2,0.1-0.4,0-0.6c2.4,0.3,2.1-1.5,1.9-2.8c-0.3-2.2-2-2.1-3.7-2c-0.3-0.3-0.6-0.6-0.9-0.9c3.9-1.5,6.4-0.2,6.5,3.9
		c0.2,11.3,0.1,22.5,0.1,34.2c-2.2-0.8-0.9-4.7-4-3.7c0.1-0.3,0.1-0.5,0-0.8C315.9,346.3,315.9,341.8,313,340.1z"/>
	<path style="fill:#0C283E;" d="M310.2,318.1c-0.6,0-1.3,0-1.9,0c0.4-0.9,0.8-1.7,1.2-2.6c0.3,0.3,0.5,0.6,0.8,0.9
		C310.2,317,310.2,317.5,310.2,318.1z"/>
	<path style="fill:#0C283E;" d="M309.5,315.5c0.3-0.3,0.6-0.6,1-0.9c0.3,0.3,0.6,0.6,0.9,0.9c-0.3,0.3-0.7,0.6-1,0.9
		C310,316.1,309.7,315.8,309.5,315.5z"/>
	<path style="fill:#E26A52;" d="M628.4,365.2c0,3.1-0.1,6.3-0.1,9.4c-13.1,0.9-26.2,0.3-39.3,0.3c-4.5,0-6.2,1.1-5.9,5.8
		c0.4,7.4,0.1,14.9,0.1,22.4c-1.1,0-2.2,0.1-3.3,0.1c-0.2-1.4,0.5-2.9-0.9-4.1c-0.1-14.3-0.3-28.6-0.1-42.9c0-4.2-1-5.9-5.6-5.8
		c-17.8,0.2-35.6,0.2-53.4,0c-4.1,0-5,1.3-5,5.2c0.2,14.5,0,29-0.1,43.4c-1.7,1-1.2,2.7-1.5,4.2c-1,0-2-0.1-3.1-0.1
		c0-7.8-0.2-15.6,0-23.4c0.1-3.8-1.3-4.8-4.9-4.8c-11.8,0.2-23.5,0.1-35.3,0c-2,0-3.9-0.4-5.9-0.6c0.3-1.1,0.5-2.1,0.8-3.1
		c8.1-6.9,16-14,24.3-20.6c6.3-5.1,11.7-11.3,18.9-15.3c0.2,2.5,1.4,3.9,4.1,3.9c5.1-0.1,10.3,0,15.4,0c2.7,0,3.9-1.2,3.6-4
		c-0.9-6.9-0.3-13.9-0.3-20.9c9.9-7.3,19.3-15.1,28-23.9c1-0.1,2.1-0.2,3.1-0.3c20.1,0.1,40.2,0.3,60.4,0.1c4.3,0,6.1,0.8,6,5.7
		c-0.4,20.8-0.3,41.6-0.4,62.4C628,360.5,628.2,362.8,628.4,365.2z M585,318.7c0-5.8-0.1-10.6,0-15.4c0.1-3-0.9-4.2-4-4.1
		c-4.5,0.2-9,0.3-13.4,0c-3.6-0.2-4.4,1.3-4.5,4.6c-0.2,10.6,0.7,21.2-0.5,31.8c-0.3,2.5,1.3,3.5,3.8,3.5c5.1,0,10.3,0,15.4,0
		c2.7,0,4-1.2,3.6-4C584.4,329.3,585.3,323.5,585,318.7z M618.8,318.7c0-5.8-0.1-10.6,0-15.4c0.1-2.9-0.9-4.2-4-4.1
		c-4.5,0.2-9,0.2-13.4,0c-3.6-0.2-4.4,1.3-4.5,4.6c-0.2,10.6,0.8,21.2-0.5,31.8c-0.3,2.4,1.3,3.5,3.7,3.5c5.1,0,10.3,0,15.4,0
		c2.7,0,4.1-1.1,3.6-4C618.3,329.3,619.1,323.5,618.8,318.7z"/>
	<path style="fill:#929DA5;" d="M129.8,403.1c0.1-18.6,0.2-37.3,0.3-55.9c23.6,0,47.2,0.1,70.9-0.1c3.9,0,5.2,1.2,5.1,5.1
		c-0.2,17,0,33.9,0,50.9C180.7,403.1,155.2,403.1,129.8,403.1z M198,349.1c-6,0-6.8,0.7-6.8,5.9c0,5.2,1,6.2,6.6,6.1
		c5.2-0.1,6-1.1,6.2-6.6C204.2,349.3,201.3,348.7,198,349.1z M179.8,361.1c3.7,0.5,6.2-0.9,6.1-5.7c-0.1-5.4-0.8-6.2-6.3-6.3
		c-4-0.1-6.8,0.4-6.6,5.5C173.3,360,174,361.1,179.8,361.1z M166.9,354.7c1.3-4.7-1.3-5.6-5.7-5.6c-4.2,0-6.4,0.9-6.3,5.8
		c0.1,4.7,1.7,6.4,6.5,6.5C166.2,361.3,167.7,359.3,166.9,354.7z M148.9,355c1-4.4-0.9-6.1-5.6-6c-4,0.1-6.6,0.5-6.5,5.6
		c0.1,4.5,1.4,6.6,6.2,6.6C147.6,361.2,149.8,359.9,148.9,355z M170.9,399.2c1-0.8,3.7,0.9,3.5-1.7c-0.1-1.8-2.4-1.2-3.7-1.2
		c-1.5,0-4.1-0.8-4.1,1.3C166.5,399.9,169.1,398.8,170.9,399.2z"/>
	<path style="fill:#0C283E;" d="M303,368c0,11.7,0.1,23.4,0.1,35.1c-27,0-54,0-81-0.1c0-11.7,0.1-23.3,0.1-35
		c7.9,0.1,15.9,0.1,23.8,0.2c-0.7,3.6-0.3,8.1-2.4,10.5c-3.2,3.6-1.1,6.3-0.6,9.5c0.1,1.6-0.5,3.5,2,3.9c2.2,0.3,3-0.9,2.9-2.9
		c1.3,0.1,1.8,1.3,2.7,1.9c2.4,1.8,7.2,2.3,7.9,1.3c2.5-3.6,6-2.8,7.8-1.5c6.4,4.6,10.4-3.1,15.9-2.3c0.2,0,0.6-0.8,0.6-1.2
		c0.2-2.5,4.9-5.4-0.6-7.5c-0.2-0.1-0.3-0.9-0.3-1.4c0-3.5-1.3-6.8-2.1-10.2C287.7,368.2,295.4,368.1,303,368z"/>
	<path style="fill:#7D7F77;" d="M206.1,403.1c0-17-0.2-33.9,0-50.9c0-3.9-1.2-5.1-5.1-5.1c-23.6,0.2-47.2,0.1-70.9,0.1
		c-0.8-4.1,1.2-5,5-5c23.6,0.1,47.2,0.2,70.8,0c3.9,0,5.1,1.1,5.1,5.1c-0.2,18.6,0,37.2,0,55.8C209.4,403.1,207.7,403.1,206.1,403.1
		z"/>
	<path style="fill:#0C283E;" d="M318.1,403c0-8.1,0.1-16.3-0.1-24.4c-0.1-3.5,1.1-4.6,4.6-4.6c13.5-0.2,13.5-0.3,13.5,13.1
		c0,5.3,0,10.6-0.1,15.9C330,403,324.1,403,318.1,403z"/>
	<path style="fill:#E1E6DC;" d="M513.4,403.1c0.2-1.5-0.3-3.2,1.5-4.2c0.8,0,1.5,0,2.3-0.1c19.6,0.1,39.2,0.1,58.8,0.2c1,0,2,0,3,0
		c1.4,1.1,0.7,2.7,0.9,4.1C557.7,403.1,535.5,403.1,513.4,403.1z"/>
	<path style="fill:#333432;" d="M879,141.1c-8,0-16-0.1-24,0c-3,0.1-4.1-0.9-4.1-4c0.3-12.3-1.3-9.8,9.5-9.9
		c14-0.2,27.9,0.2,41.9-0.1c4.5-0.1,6,1.4,5.4,5.7c-0.2,1.3-0.1,2.7,0,4c0.2,3.2-1.1,4.5-4.4,4.4C895.3,141,887.1,141.1,879,141.1z"
		/>
	<path style="fill:#333432;" d="M880,215.2c8,0,16,0.1,24,0c2.8,0,3.9,0.9,3.9,3.7c-0.1,12.5,0.6,10.1-9.5,10.2
		c-14.1,0.1-28.3-0.1-42.4,0.1c-4,0.1-5.1-1.3-5-5.1c0.4-10.4-1.2-8.7,8.6-8.9C866.4,215.1,873.2,215.2,880,215.2z"/>
	<path style="fill:#333432;" d="M879.4,149.2c8,0,16,0.1,24-0.1c3.1-0.1,4.5,0.7,4.5,4.1c-0.2,11.8,0.6,9.7-9.4,9.8
		c-14.3,0.1-28.6-0.1-42.9,0.1c-3.4,0-4.7-1-4.6-4.5c0.4-11.5-1.4-9.2,9.5-9.4C866.8,149.1,873.1,149.2,879.4,149.2z"/>
	<path style="fill:#333432;" d="M879,273.1c-8,0-16-0.1-24,0c-3,0.1-4.2-0.9-4.1-4c0.3-12.3-1.3-9.8,9.5-9.9
		c14-0.2,27.9,0.2,41.9-0.1c4.5-0.1,6.1,1.4,5.5,5.7c-0.2,1.3-0.1,2.7,0,4c0.2,3.2-1.1,4.5-4.4,4.4C895.3,273,887.1,273.1,879,273.1
		z"/>
	<path style="fill:#333432;" d="M879.5,185.1c-8,0-16-0.1-24,0.1c-3.4,0.1-4.7-0.9-4.6-4.5c0.3-11.5-1.3-9.4,9.5-9.5
		c14.1-0.1,28.3,0.1,42.4-0.1c3.5,0,5.1,0.6,5,4.6c-0.3,11,0.6,9.2-9.4,9.4C892.2,185.2,885.8,185.1,879.5,185.1z"/>
	<path style="fill:#333432;" d="M879.5,317.1c-8.2,0-16.3-0.1-24.5,0c-2.9,0-4.2-0.8-4.1-4c0.3-12.3-1.3-9.8,9.5-10
		c14.1-0.2,28.3,0.1,42.4-0.1c3.5,0,5.1,0.6,5,4.6c-0.3,11,0.6,9.2-9.4,9.4C892.2,317.2,885.8,317.1,879.5,317.1z"/>
	<path style="fill:#333432;" d="M879.5,193.2c8.2,0,16.3,0.1,24.5,0c2.7,0,3.8,0.9,3.9,3.7c0.5,10.3,0.6,10.3-9.5,10.3
		c-14.1,0-28.3-0.1-42.4,0.1c-4,0.1-5.2-1.2-5-5.1c0.4-10.5-1.2-8.7,8.6-8.9C866.2,193.1,872.8,193.2,879.5,193.2z"/>
	<path style="fill:#333432;" d="M879.5,281.2c8.2,0,16.3,0.1,24.5,0c2.7,0,3.8,0.9,3.9,3.7c0.5,10.3,0.6,10.3-9.5,10.3
		c-14.1,0-28.3-0.1-42.4,0.1c-4,0.1-5.2-1.2-5-5.1c0.4-10.5-1.2-8.7,8.6-8.9C866.2,281.1,872.8,281.2,879.5,281.2z"/>
	<path style="fill:#333432;" d="M879.5,251.1c-8,0-16-0.1-24,0.1c-3.4,0.1-4.7-0.9-4.6-4.5c0.3-11.5-1.3-9.4,9.5-9.5
		c14.1-0.1,28.3,0.1,42.4-0.1c3.5,0,5.1,0.6,5,4.6c-0.3,11,0.6,9.2-9.4,9.4C892.2,251.2,885.8,251.1,879.5,251.1z"/>
	<path style="fill:#333432;" d="M880,325.2c8,0,16,0.1,24,0c2.8,0,3.9,0.9,3.9,3.7c-0.1,12.5,0.6,10.1-9.5,10.2
		c-14.1,0.1-28.3-0.1-42.4,0.1c-4,0.1-5.1-1.3-5-5.1c0.4-10.4-1.2-8.7,8.6-8.9C866.4,325.1,873.2,325.2,880,325.2z"/>
	<path style="fill:#333432;" d="M815.9,361.7c0.2-10.9-1.6-9.1,9.5-9.5c4-0.1,5.8,0.9,5.4,5.2c-0.3,3.6-0.1,7.3-0.1,11
		c0,2.5-1.1,3.4-3.6,3.6C815.9,373,815.9,373,815.9,361.7z"/>
	<path style="fill:#333432;" d="M854.8,362.2c0,9.9-2.4,11.8-12.4,9.7c-1.9-0.4-2.4-1.4-2.4-3.1c0-4.5,0-9,0-13.5
		c0-1.4,0.1-2.9,1.9-3c3.6-0.1,7.3-0.1,11,0c1.8,0,2,1.5,2,2.9C854.8,357.6,854.8,359.9,854.8,362.2z"/>
	<path style="fill:#333432;" d="M864,362.1c0-10.4,1.4-11.5,12.1-9.8c2.2,0.3,2.7,1.5,2.7,3.3c0,4.1-0.1,8.3,0,12.4
		c0.1,2.7-1,4.1-3.8,3.9c-0.2,0-0.3,0-0.5,0C861.5,371.8,864.3,373.3,864,362.1z"/>
	<path style="fill:#AFB3A8;" d="M966,317.1c-11.3,0-22.6-0.1-33.9,0.1c-3.7,0.1-5.3-1.2-5-4.9c0.1-1,0.1-2,0-3
		c-0.7-4.7,1.1-6.3,6-6.2c21.6,0.3,43.3,0.2,64.9,0c4.8-0.1,6.9,1.2,6.1,6.1c-0.2,1.1-0.1,2.3,0,3.5c0.4,3.6-1.2,4.6-4.6,4.5
		C988.3,317,977.2,317.1,966,317.1z"/>
	<path style="fill:#AFB3A8;" d="M966,281.2c11,0,22,0.1,32.9-0.1c3.8-0.1,5.3,0.9,5.2,5c-0.4,10.5,1,8.9-9.1,9
		c-20.6,0.1-41.3,0-61.9,0c-2,0-5,1-5.6-1.8c-0.8-3.7-1.2-7.6,0.4-11.2c0.6-1.5,2.7-0.8,4.2-0.8C943.4,281.2,954.7,281.2,966,281.2z
		"/>
	<path style="fill:#AFB3A8;" d="M966,251.1c-11.1,0-22.3-0.1-33.4,0.1c-4.1,0.1-6-1.2-5.5-5.4c0.1-0.8,0.1-1.7,0-2.5
		c-0.7-4.7,1-6.3,6-6.2c21.6,0.3,43.3,0.2,64.9,0c4.7-0.1,6.9,1.2,6.1,6.1c-0.2,1.1-0.1,2.3,0,3.5c0.4,3.5-1.2,4.6-4.6,4.5
		C988.3,251,977.2,251.1,966,251.1z"/>
	<path style="fill:#AFB3A8;" d="M966,259.2c11,0,22,0.1,32.9-0.1c3.8-0.1,5.3,1,5.2,5c-0.3,10.5,1,8.9-9.1,9
		c-20.6,0.1-41.3,0-61.9,0c-2,0-5,1-5.6-1.9c-0.8-3.7-1.2-7.6,0.4-11.2c0.6-1.4,2.7-0.8,4.2-0.8C943.4,259.2,954.7,259.2,966,259.2z
		"/>
	<path style="fill:#AFB3A8;" d="M965.5,339.1c-11,0-22-0.1-32.9,0.1c-4.1,0.1-6-1.2-5.5-5.4c0.1-0.7,0-1.3,0-2c0-6.6,0-6.6,6.4-6.6
		c21.5,0,42.9,0.1,64.4-0.1c4.7-0.1,6.9,1.2,6.1,6.1c-0.2,1.1-0.1,2.3,0,3.5c0.4,3.5-1.2,4.6-4.6,4.6
		C988.2,339,976.9,339.1,965.5,339.1z"/>
	<path style="fill:#AFB3A8;" d="M966,215.2c11,0,22,0.1,32.9-0.1c3.8-0.1,5.3,1,5.2,5c-0.3,10.5,1,8.9-9.1,9
		c-20.6,0.1-41.3,0-61.9,0c-2,0-5,1-5.6-1.9c-0.8-3.7-1.2-7.6,0.4-11.2c0.6-1.4,2.7-0.8,4.2-0.8C943.4,215.2,954.7,215.2,966,215.2z
		"/>
	<path style="fill:#AFB3A8;" d="M965.7,193.2c11.1,0,22.3,0.1,33.4-0.1c3.5-0.1,5.1,0.7,5,4.7c-0.3,11,1,9.3-9.3,9.3
		c-20.5,0.1-40.9-0.1-61.4,0.1c-5.2,0.1-7-1.7-6.3-6.6c0.1-1,0.1-2,0-3c-0.4-3.6,1.2-4.6,4.6-4.5C943,193.3,954.4,193.2,965.7,193.2
		z"/>
	<path style="fill:#AFB3A8;" d="M966,185.1c-11.3,0-22.6-0.1-33.9,0.1c-3.7,0.1-5.3-1.3-4.9-4.9c0.1-1.2,0.2-2.3,0-3.5
		c-0.6-4.3,1-5.7,5.5-5.7c21.8,0.2,43.6,0.2,65.4,0c4.8-0.1,6.8,1.2,6.1,6.1c-0.2,1.1-0.1,2.3,0,3.5c0.4,3.6-1.3,4.6-4.6,4.5
		C988.3,185,977.1,185.1,966,185.1z"/>
	<path style="fill:#AFB3A8;" d="M965.5,163.1c-11.1,0-22.3-0.1-33.4,0.1c-3.7,0.1-5.3-1.3-4.9-4.9c0.1-1.2,0.2-2.3,0-3.5
		c-0.6-4.3,1.1-5.7,5.5-5.7c21.8,0.2,43.6,0.2,65.4,0c4.8-0.1,6.8,1.3,6.1,6.1c-0.2,1.1-0.1,2.3,0,3.5c0.4,3.6-1.3,4.6-4.6,4.5
		C988.1,163,976.8,163.1,965.5,163.1z"/>
	<path style="fill:#AFB3A8;" d="M965.6,127.2c11.3,0,22.6,0.1,33.9-0.1c3.5-0.1,4.7,1.1,4.6,4.6c-0.3,11.1,1,9.3-9.2,9.4
		c-20.3,0.1-40.6,0-60.9,0c-6.9,0-6.9,0-6.9-7.4c0-6.5,0-6.5,7-6.5C944.6,127.2,955.1,127.2,965.6,127.2z"/>
	<path style="fill:#929DA5;" d="M303.4,359.3c0.5,1.9,0.5,3.9-0.1,5.8c-27,0-54,0-81,0c-0.5-3.6-0.4-7.2,0-10.8
		c24,0,47.9-0.1,71.9,0c1.9,0,4.5-0.6,4.5,2.4C298.7,360.8,301.2,359.5,303.4,359.3z M267.1,359.9c-2.8-0.2-5.6-1.7-9.5,1.1
		C261.7,360.9,264.4,361.8,267.1,359.9z"/>
	<path style="fill:#7D7F77;" d="M303.4,359.3c-2.2,0.3-4.7,1.6-4.6-2.6c0-3.1-2.6-2.4-4.5-2.4c-24,0-47.9,0-71.9,0
		c-0.1-2.8-0.1-5.5-0.2-8.3c27.1,0,54.2,0,81.3,0C303.5,350.4,303.5,354.8,303.4,359.3z M234.8,352.2c1.7,0,2.4,0,3,0
		c1.8-0.1,4,0,3.9-2.7c-0.1-2.2-2.1-2.3-3.7-2.3c-1.8,0-3.6,0-5.5,0c-1.3,0-2.3,0.5-2.4,2c-0.1,1.6,0.7,2.5,2.3,2.7
		C233.5,352.2,234.7,352.1,234.8,352.2z M253.8,347.1c-1.8,0.7-5.3-1.3-5.6,2.2c-0.3,3.9,3.4,2.6,5.6,2.9c1.3,0.1,2.7,0,4-0.2
		c1.2-0.2,2.1-1.1,2-2.5c-0.1-1.1-0.8-1.9-1.9-2C256.6,347.2,255.3,347.2,253.8,347.1z M290.1,347.3c-1.6,0.5-5.8-1.5-5.7,2.5
		c0.1,3.9,4.1,2,6.5,2.4c1,0.2,2,0,3-0.2c1.3-0.3,2-1.1,2-2.5c0-1.4-0.8-2.1-2.2-2.2C292.8,347.2,291.8,347.3,290.1,347.3z
		 M272.2,352.1C272.2,352.1,272.2,352.1,272.2,352.1c1,0,2,0.1,3,0c1.6-0.2,3.1-0.9,2.6-2.8c-0.8-2.9-3.4-2.1-5.4-2
		c-2.2,0.1-5.3-1.2-6.1,2.4c-0.3,1.5,1,2.3,2.5,2.4C269.9,352.1,271,352.1,272.2,352.1z"/>
	<path style="fill:#0C283E;" d="M303.6,346c-27.1,0-54.2,0-81.3,0c-0.6-2.8,0.5-3.9,3.4-3.9c24.9,0.1,49.7,0.1,74.6,0
		C303.1,342.1,304.3,343.2,303.6,346z"/>
	<path style="fill:#7D7F77;" d="M222.4,365.1c27,0,54,0,81,0c0.6,1,0.1,2-0.3,2.9c-7.7,0.1-15.4,0.2-23.1,0.2c-0.4,0-0.7,0-1.1,0
		c-10.3,0-20.6,0-30.9,0c-0.6,0-1.3,0-1.9-0.1c-7.9-0.1-15.9-0.1-23.8-0.2C222.3,367.1,222.3,366.1,222.4,365.1z"/>
	<path style="fill:#436633;" d="M170.3,339.2c-2.8-0.3-6.6,1.4-6.5-4.1c0.1-3.7,1.2-5.3,4.9-4.8c1.1,0.1,2.3,0.1,3.5,0
		c3.4-0.4,4.7,0.9,4.7,4.5c0,3.5-1.1,5-4.6,4.5C171.7,339.2,171,339.2,170.3,339.2z M170.4,334c-1.4,1.4-5-1.6-5.2,2.2
		c-0.1,3.1,3.1,2.2,5,2.3c2.1,0,5.4,0.8,5.3-2.6C175.5,333.1,172.4,334.8,170.4,334z"/>
	<path style="fill:#436633;" d="M262.8,339.2c-3.4,0.4-6,0.4-6-4.6c0-5.5,3.5-4.1,6.4-4.2c2.9-0.1,5.8-0.8,5.9,4.2
		C269.3,340.1,266.1,339.4,262.8,339.2z M263,334.2c-1.7,0.6-4.7-1.1-4.9,1.8c-0.2,3.4,2.9,2.4,4.8,2.3c1.9,0,5,1.1,4.9-2.3
		C267.6,333,264.6,334.9,263,334.2z"/>
	<path style="fill:#AADEEA;" d="M313,321c1.1,0.2,2.5,0,2.4,1.8c0,5,0,9.9,0,14.9c0,1.6-1.2,1.8-2.4,1.7c-0.6-4.4,0.5-8.9-0.9-13.3
		C311.7,324.5,311.3,322.4,313,321z"/>
	<path style="fill:#AADEEA;" d="M310.3,316.4c0.3-0.3,0.7-0.6,1-0.9c1.6-0.1,3.4-0.2,3.7,2c0.2,1.4,0.5,3.1-1.9,2.8
		c-0.3-1.6-1.1-2.5-2.9-2.2C310.2,317.5,310.2,317,310.3,316.4z"/>
	<path style="fill:#AADEEA;" d="M313,340.1c2.9,1.7,2.9,6.3,0,8.2C313,345.6,313,342.8,313,340.1z"/>
	<path style="fill:#AFB3A8;" d="M912.9,361.8c0,0.2,0,0.3,0,0.5c0,9.9-2.7,11.9-12.5,9.8c-1.9-0.4-2.4-1.4-2.4-3.1c0-4.5,0-9,0-13.5
		c0-0.2,0-0.4,0-0.5c2.3-5.3,6.9-1.7,10.4-2.6c2-0.5,4.6-0.5,4.5,2.9c0,0.7,0,1.3,0,2C912.9,358.8,912.9,360.3,912.9,361.8z"/>
	<path style="fill:#AFB3A8;" d="M985,361.7c0,0.8,0,1.7,0,2.5c-0.1,8.5,1,7.8-7.7,7.9c-7.2,0-7.2,0-7.2-7.1c0-2.5,0.2-5,0-7.5
		c-0.5-4.2,1.3-5.4,5.4-5.3C986.7,352.5,984.8,350.9,985,361.7z"/>
	<path style="fill:#AFB3A8;" d="M1009,362.6c-0.2,10.6,1.8,9.2-9.6,9.5c-4.3,0.1-5.8-1.6-5.3-5.6c0.1-1.3,0-2.7,0-4
		c0.3-11.8-2.3-10.1,10.8-10.3c3.4-0.1,4.5,1.3,4.2,4.4C1008.9,358.6,1009,360.6,1009,362.6z"/>
	<path style="fill:#AFB3A8;" d="M1033,362.3c0,10.7-0.3,10.9-11.2,9.8c-2.5-0.2-3.7-1.2-3.6-3.7c0-2,0-4,0-6
		c0.2-11.7-2-9.9,10.4-10.2c3.5-0.1,4.9,1.1,4.5,4.6C1032.8,358.6,1033,360.4,1033,362.3z"/>
	<path style="fill:#AFB3A8;" d="M922.1,361.7c0.2-10.8-1.6-9.1,9.5-9.6c4.6-0.2,6,1.5,5.4,5.7c-0.2,1.5,0,3,0,4.5
		c0,10.3,0,10.2-10.5,9.8c-3.1-0.1-4.6-1.2-4.4-4.4C922.2,365.7,922.1,363.7,922.1,361.7z"/>
	<path style="fill:#AFB3A8;" d="M960.9,361.7c0,0.2,0,0.3,0,0.5c0,10.4-0.8,11.1-11.4,9.8c-2.5-0.3-3.5-1.4-3.5-3.8
		c0-2.2,0-4.3,0-6.5c0.2-11-1.7-9.3,9.9-9.6c4-0.1,5.5,1.2,5,5.1C960.8,358.7,960.9,360.3,960.9,361.7z"/>
	<path style="fill:#D25C45;" d="M617.8,211.3c0.3,5.1,2.5,9,7.6,10.4c2.5,0.7,3,2.2,2.9,4.4c-0.1,2-0.1,4-0.1,6
		c-3.2,2.2-5.7,5.4-9.2,7.1c-0.1-2.2-0.3-4.3-0.1-6.5c0.3-3.5-0.9-4.8-4.5-4.6c-4.3,0.3-8.6,0.2-12.9,0c-3.1-0.1-4.5,0.6-4.4,4.1
		c0.2,8.9-0.1,17.9-0.1,26.9c-4.1,1.7-5.9,6.9-11,7c-0.5-2.3-1-4.5-0.9-6.9c0.1-9-0.1-18,0.1-27c0.1-3-1-4.2-4-4
		c-4.3,0.2-8.7,0.3-13,0c-3.8-0.3-4.8,1.1-4.8,4.8c-0.1,10.5,0.7,21-0.4,31.4c-0.3,2.9,1.6,3.6,4.1,3.6c6,0,12,0,18,0
		c-0.7,2-2.4,3-3.9,4.3c-4.7,4.3-10.2,7.7-14,12.9c-0.3,0.2-0.6,0.3-1,0.5c-11.8-0.1-23.6-0.3-35.4-0.3c-20.1,0-40.3-0.1-60.4,0.1
		c-4,0-5.5-1-5.4-5.3c0.2-17.8,0.1-35.6,0.1-53.4c0-1.8-0.7-4.1,2.2-4.7c5.8-1.2,8-5.4,8.7-10.8c3.8,0.5,8.3-2,11.2,2.6
		c0.4,0.6,1.7,0.2,2.1-0.6c1.8-3.4,5.6-2.8,7.5-1.8c3.2,1.7,5.1,2.1,8.3,0c1.6-1,5.5-1.9,7.4,1.7c0.7,1.3,1.9,1.1,2.9,0.1
		c3.3-3.2,6.7-3.3,10.1,0c1.2,1.2,2.2,1.2,3.4,0c3.1-3.3,6.5-3.1,9.7-0.2c1.2,1,2,1.6,3.3,0.2c3.1-3.4,6.5-2.9,9.7-0.2
		c1.2,1,2,1.6,3.3,0.2c3.1-3.4,6.5-2.9,9.7-0.2c1.2,1,2,1.6,3.3,0.3c3.4-3.5,6.9-3.3,10.4,0c0.8,0.8,1.7,1,2.5,0.1
		c3.6-3.7,7.2-3.4,10.7,0.1c0.7,0.7,1.4,0.5,2.2,0c4.8-3.3,6.1-3.3,10.7-0.1c0.8,0.5,1.7,0.9,2.2,0.2
		C609.5,208.9,614,211.8,617.8,211.3z M508.9,264.2c-1.2,3.1,0.7,3.8,3.1,3.9c5.3,0.1,10.6,0.1,15.9,0c2.4,0,4.3-0.7,3.1-3.8
		c0-10.5-0.2-20.9-0.1-31.4c0-3.3-0.8-4.9-4.4-4.6c-4.3,0.3-8.6,0.3-13,0c-3.6-0.2-4.5,1.3-4.4,4.6
		C509.1,243.3,508.9,253.7,508.9,264.2z M475.2,247.1c-0.1,0-0.3,0-0.4,0c0,5.6,0.1,11.3-0.1,16.9c-0.1,2.5,0.7,3.9,3.2,3.9
		c5.5,0.1,11,0,16.5,0c2,0,3.3-1.3,3.1-3.1c-1.3-11.1-0.2-22.2-0.5-33.3c-0.1-2.3-0.9-3.3-3.2-3.2c-5,0.1-10,0.1-15,0
		c-3-0.1-3.6,1.4-3.6,4C475.3,237.1,475.2,242.1,475.2,247.1z"/>
	<path style="fill:#D25C45;" d="M508.1,335.2c-7.1,4-12.6,10.2-18.9,15.3c-8.3,6.7-16.2,13.7-24.3,20.6c0-25.6-0.1-51.2-0.2-76.8
		c0-2.8,0.6-4.3,3.8-4.2c30.1,0.1,60.2,0.1,90.3,0.2c-8.7,8.7-18.1,16.6-28,23.9c-0.1-3.8-0.2-7.7-0.1-11.5c0.1-2.6-1-3.6-3.5-3.5
		c-4.8,0.1-9.7,0.1-14.5,0c-2.8-0.1-3.8,1-3.8,3.8c0.1,8.3,0.1,16.7,0,25C509,330.4,509.8,333,508.1,335.2z M496.9,318.9
		c0-6-0.1-11,0-16c0.1-2.8-1-3.8-3.8-3.7c-4.5,0.2-9,0.2-13.5,0c-3.5-0.2-4.6,1-4.6,4.5c-0.1,10.6,0.8,21.2-0.4,31.9
		c-0.2,1.9,0.8,3.3,2.8,3.4c5.6,0.1,11.3,0.1,17,0c2.2,0,3.4-1.4,3-3.6C496.4,329.5,497.3,323.7,496.9,318.9z"/>
	<path style="fill:#E26A52;" d="M585.8,266.1c5.1-0.1,6.9-5.3,11-7c0,1,0.4,2.1,0.1,3c-1.5,4.9,0.6,6.3,5.2,6
		c4.5-0.2,9-0.1,13.5-0.1c2.7,0,4-1.1,3.7-4c-1-8.3-0.4-16.6-0.3-24.9c3.6-1.7,6-4.9,9.2-7.1c0.3,0.1,0.5,0.1,0.8,0.2
		c-1.9,7.2-0.7,14.5-0.9,21.7c-0.2,9.2-0.2,18.5-0.1,27.7c0,2.8-1,3.7-3.8,3.7c-19.1-0.1-38.2-0.1-57.3-0.2c3.8-5.2,9.3-8.6,14-12.9
		c1.4-1.3,3.2-2.3,3.9-4.3l0,0.2c0.7-0.5,1-1.2,1-2.1L585.8,266.1z"/>
	<path style="fill:#353528;" d="M1097,358.2c0.1-0.1,0.2-0.3,0.2-0.4C1097.2,357.9,1097.1,358.1,1097,358.2
		C1097,358.2,1097,358.2,1097,358.2z"/>
	<path style="fill:#0C283E;" d="M105.5,263.6c0.3,2.6-4.8,3.3-2.2,5.8c2.4,2.4,2.9-2.4,5.4-2.1c0.4,3.6-1.8,6.4-4.8,7.2
		c-4.2,1.2-6.7,4-9.5,6.8c-1.3,1.3-2.9,2.9-4.6,1.1c-1.6-1.7,0.1-3.1,1.3-4.2c3.1-2.8,5.8-5.6,7-9.9
		C99.2,265.3,102.1,263.8,105.5,263.6z"/>
	<path style="fill:#C2C5BF;" d="M508.1,335.2c1.6-2.3,0.8-4.8,0.9-7.3c0.1-8.3,0.1-16.7,0-25c0-2.8,0.9-3.9,3.8-3.8
		c4.8,0.2,9.7,0.1,14.5,0c2.6-0.1,3.6,0.9,3.5,3.5c-0.1,3.8,0.1,7.7,0.1,11.5c0,7-0.6,13.9,0.3,20.9c0.4,2.8-0.9,4-3.6,4
		c-5.1,0-10.3-0.1-15.4,0C509.5,339.1,508.4,337.7,508.1,335.2z M523.3,321.1c-12.4-0.3-10.1-0.8-10.2,8.1c-0.3,2.6,0.5,4.1,3.4,3.9
		c2.1-0.1,4.3-0.1,6.4,0c2.4,0.1,4.7-0.4,3.9-3.4C526,326.8,530.2,321.5,523.3,321.1z M520.2,315.3c6.8,0,6.8,0,6.8-6.1
		c0-6,0-5.9-6.9-6c-4.2-0.1-7.9-0.6-7.2,5.9C513.5,315.2,513,315.3,520.2,315.3z"/>
	<path style="fill:#C2C5BF;" d="M585,318.7c0.3,4.8-0.6,10.6,0.4,16.4c0.5,2.8-0.9,4-3.6,4c-5.1,0-10.3,0-15.4,0c-2.4,0-4-1-3.8-3.5
		c1.2-10.6,0.3-21.2,0.5-31.8c0-3.3,0.9-4.9,4.5-4.6c4.5,0.3,9,0.2,13.4,0c3.1-0.1,4.1,1.1,4,4.1C584.8,308.1,585,312.9,585,318.7z
		 M573.8,333.1c7.2,0,7.2,0,7.2-6.4c0-6.4,0-6.4-6.6-6.5c-7.4,0-7.4,0-7.4,6.1C567,333.1,567,333.1,573.8,333.1z M574,315.1
		c6.9,0,6.4,0,7-6c0.6-5.9-2.5-5.9-6.8-5.8c-4.1,0.1-7.9-0.6-7.2,5.9C567.7,315,567.2,315.1,574,315.1z"/>
	<path style="fill:#C2C5BF;" d="M618.8,318.7c0.3,4.8-0.6,10.7,0.4,16.4c0.5,2.8-1,4-3.6,4c-5.1,0-10.3,0-15.4,0c-2.4,0-4-1-3.7-3.5
		c1.3-10.6,0.3-21.2,0.5-31.8c0.1-3.4,0.9-4.8,4.5-4.6c4.5,0.3,9,0.2,13.4,0c3.1-0.1,4.1,1.2,4,4.1
		C618.7,308.1,618.8,312.9,618.8,318.7z M608.1,320.3c-7.1,0-7.1,0-7.1,6.4c0,6.4,0,6.4,6.6,6.4c7.4,0,7.4,0,7.4-6.1
		C615,320.3,615,320.3,608.1,320.3z M608,315.1c6.9,0,6.4,0,7-6c0.6-5.8-2.4-6-6.7-5.9c-4.1,0.1-8-0.8-7.3,5.8
		C601.6,315,601.1,315.1,608,315.1z"/>
	<path style="fill:#B1B2B1;" d="M517.1,398.9c-0.8,0-1.5,0-2.3,0.1c0-14.5,0.2-29,0.1-43.4c0-3.8,0.9-5.2,5-5.2
		c17.8,0.2,35.6,0.2,53.4,0c4.6-0.1,5.6,1.6,5.6,5.8c-0.2,14.3,0,28.6,0.1,42.9c-1,0-2,0-3,0c0-13.8,0-27.6,0.1-41.5
		c0-3.1-0.9-4.5-4.2-4.5c-16.8,0.1-33.6,0.1-50.5,0c-3.7,0-4.4,1.5-4.4,4.8C517.2,371.6,517.1,385.2,517.1,398.9z"/>
	<path style="fill:#66804F;" d="M198,349.1c3.4-0.4,6.3,0.2,6,5.4c-0.2,5.5-1,6.6-6.2,6.6c-5.6,0.1-6.7-0.9-6.6-6.1
		C191.2,349.8,191.9,349.1,198,349.1z"/>
	<path style="fill:#66804F;" d="M179.8,361.1c-5.8,0-6.5-1.1-6.8-6.5c-0.3-5.1,2.6-5.6,6.6-5.5c5.5,0.2,6.2,0.9,6.3,6.3
		C186,360.2,183.5,361.6,179.8,361.1z"/>
	<path style="fill:#66804F;" d="M166.9,354.7c0.8,4.7-0.7,6.6-5.5,6.6c-4.7-0.1-6.4-1.8-6.5-6.5c-0.1-4.9,2.1-5.8,6.3-5.8
		C165.7,349,168.2,349.9,166.9,354.7z"/>
	<path style="fill:#66804F;" d="M148.9,355c0.9,4.9-1.4,6.2-5.8,6.2c-4.9,0-6.1-2.1-6.2-6.6c-0.1-5.1,2.5-5.5,6.5-5.6
		C148,348.9,149.9,350.6,148.9,355z"/>
	<path style="fill:#7D7F77;" d="M170.9,399.2c-1.7-0.5-4.3,0.6-4.3-1.6c0-2.1,2.6-1.3,4.1-1.3c1.4,0,3.7-0.6,3.7,1.2
		C174.5,400.1,171.8,398.4,170.9,399.2z"/>
	<path style="fill:#2B2A20;" d="M278.9,368.3c0.4,0,0.7,0,1.1,0c0.7,3.4,2.1,6.6,2.1,10.2c0,0.5,0,1.3,0.3,1.4
		c5.5,2.1,0.8,5,0.6,7.5c0,0.4-0.5,1.3-0.6,1.2c-5.5-0.9-9.5,6.9-15.9,2.3c-1.8-1.3-5.3-2.1-7.8,1.5c-0.7,1-5.4,0.6-7.9-1.3
		c-0.9-0.7-1.4-1.8-2.7-1.9c-1.5-0.8-3.2-1-4.9-0.9c-0.4-3.2-2.5-5.9,0.6-9.5c2.1-2.4,1.7-6.9,2.4-10.5c0.6,0,1.3,0,1.9,0.1
		c-0.7,3.9-1.4,7.8-1.9,11.7c-0.3,2.5,0.4,4.2,3.4,4.1c9.2-0.1,18.5,0,27.7,0c2.7,0,3.9-1,3.3-4.1
		C279.8,376.2,279.4,372.2,278.9,368.3z"/>
	<path style="fill:#333432;" d="M243.1,388.2c1.7-0.1,3.4,0.1,4.9,0.9c0.1,2-0.7,3.2-2.9,2.9C242.6,391.7,243.1,389.8,243.1,388.2z"
		/>
	<path style="fill:#929DA5;" d="M517.1,398.9c0-13.7,0-27.3-0.1-41c0-3.3,0.7-4.8,4.4-4.8c16.8,0.2,33.6,0.1,50.5,0
		c3.4,0,4.3,1.4,4.2,4.5c-0.1,13.8-0.1,27.6-0.1,41.5C556.3,399,536.7,398.9,517.1,398.9z M531.5,375.2c2,0,4-0.1,6,0
		c3.4,0.3,4.6-1.1,4.6-4.5c0.2-13.5,0.4-13.5-13-13.5c-0.2,0-0.3,0-0.5,0c-7.5,0-7.5,0-7.5,7.5C521,375.2,521,375.2,531.5,375.2z
		 M561.4,375.2c1.3,0,2.7,0,4,0c6.6,0,6.6,0,6.6-6.9c0-2-0.2-4,0-6c0.4-3.8-0.8-5.6-5-5.2c-3,0.3-6,0.1-8.9,0.1
		c-7.1,0-7.1,0-7.1,7.4C551,375.2,551,375.2,561.4,375.2z"/>
	<path style="fill:#7D7F77;" d="M267.1,359.9c-2.6,1.9-5.4,1-9.5,1.1C261.4,358.2,264.3,359.6,267.1,359.9z"/>
	<path style="fill:#436633;" d="M234.8,352.2c-0.1,0-1.3,0-2.4-0.2c-1.5-0.2-2.3-1.2-2.3-2.7c0.1-1.5,1.1-1.9,2.4-2
		c1.8-0.1,3.6-0.1,5.5,0c1.7,0,3.6,0.1,3.7,2.3c0.1,2.6-2,2.6-3.9,2.7C237.2,352.2,236.5,352.2,234.8,352.2z"/>
	<path style="fill:#436633;" d="M253.8,347.1c1.5,0.1,2.8,0.1,4.1,0.4c1,0.2,1.8,0.9,1.9,2c0.1,1.4-0.7,2.2-2,2.5
		c-1.3,0.2-2.7,0.3-4,0.2c-2.2-0.2-5.9,1-5.6-2.9C248.5,345.8,252,347.8,253.8,347.1z"/>
	<path style="fill:#436633;" d="M290.1,347.3c1.7,0,2.6-0.1,3.6,0c1.3,0.1,2.2,0.8,2.2,2.2c0,1.3-0.8,2.2-2,2.5c-1,0.2-2,0.3-3,0.2
		c-2.4-0.4-6.4,1.5-6.5-2.4C284.3,345.8,288.5,347.8,290.1,347.3z"/>
	<path style="fill:#436633;" d="M272.2,352.1c-1.1,0-2.3,0.1-3.4,0c-1.5-0.1-2.8-0.9-2.5-2.4c0.8-3.6,3.9-2.3,6.1-2.4
		c2-0.1,4.6-0.9,5.4,2c0.5,1.9-0.9,2.6-2.6,2.8C274.1,352.2,273.2,352.1,272.2,352.1C272.2,352.1,272.2,352.1,272.2,352.1z"/>
	<path style="fill:#0C283E;" d="M278.9,368.3c0.5,3.9,0.8,7.9,1.6,11.8c0.6,3-0.7,4-3.3,4.1c-9.2,0-18.5,0-27.7,0
		c-3,0-3.8-1.7-3.4-4.1c0.6-3.9,1.3-7.8,1.9-11.7C258.3,368.3,268.6,368.3,278.9,368.3z"/>
	<path style="fill:#929DA5;" d="M170.4,334c2,0.8,5.1-0.9,5.1,1.9c0.1,3.3-3.2,2.6-5.3,2.6c-1.9,0-5.1,0.8-5-2.3
		C165.4,332.4,169.1,335.4,170.4,334z"/>
	<path style="fill:#AFB3A8;" d="M263,334.2c1.6,0.7,4.6-1.2,4.8,1.8c0.2,3.4-3,2.3-4.9,2.3c-1.9,0-5.1,1-4.8-2.3
		C258.3,333.1,261.3,334.9,263,334.2z"/>
	<path style="fill:#C2C5BF;" d="M475.2,247.1c0-5,0.1-10,0-15c-0.1-2.6,0.6-4.1,3.6-4c5,0.2,10,0.1,15,0c2.3,0,3.2,0.9,3.2,3.2
		c0.3,11.1-0.7,22.2,0.5,33.3c0.2,1.9-1.1,3.1-3.1,3.1c-5.5,0-11,0.1-16.5,0c-2.5,0-3.3-1.4-3.2-3.9c0.2-5.6,0.1-11.3,0.1-16.9
		C475,247.1,475.1,247.1,475.2,247.1z M486,262.1c7,0,7,0,7-6.4c0-6.4,0-6.4-6.5-6.4c-7.4,0-7.4,0-7.4,6.1
		C479.1,262.1,479.1,262.1,486,262.1z M486.2,232.1c-7,0-7,0-7,5.9c0,6.3,0,6.3,6.7,6.3c7.3,0,7.3,0,7.3-6.1
		C493.1,232.1,493.1,232.1,486.2,232.1z"/>
	<path style="fill:#C2C5BF;" d="M584.9,268c-6,0-12-0.1-18,0c-2.5,0-4.5-0.6-4.1-3.6c1.1-10.5,0.3-21,0.4-31.4
		c0-3.7,1.1-5.1,4.8-4.8c4.3,0.3,8.7,0.2,13,0c3.1-0.1,4.1,1,4,4c-0.1,9,0,18-0.1,27c0,2.4,0.5,4.6,0.9,6.9c0,0,0.1,0,0.1,0
		c-0.9,0.4-1.2,1.1-1,2.1L584.9,268z M573.9,262.1c7.2,0,7.2,0,7.2-6.2c0-6.5,0-6.5-6.9-6.5c-7.2,0-7.2,0-7.2,6.2
		C567,262.1,567,262.1,573.9,262.1z M573.8,244.3c7.3,0,7.3,0,7.2-6.1c0-6,0-6-6.9-6c-7.2,0-7.2,0-7.2,6.1
		C567,244.3,567,244.3,573.8,244.3z"/>
	<path style="fill:#C2C5BF;" d="M618.9,239.2c0,8.3-0.6,16.6,0.3,24.9c0.3,2.9-1,4-3.7,4c-4.5,0-9-0.2-13.5,0.1
		c-4.6,0.3-6.7-1.2-5.2-6c0.3-0.9,0-2-0.1-3c0.1-9,0.3-17.9,0.1-26.9c-0.1-3.5,1.4-4.2,4.4-4.1c4.3,0.2,8.6,0.2,12.9,0
		c3.5-0.2,4.8,1.1,4.5,4.6C618.6,234.9,618.9,237,618.9,239.2z M605.9,249.4c-5.1-1-5.4,2-4.8,5.8c-0.2,6.9-0.2,6.9,6.4,6.9
		c1.7,0,3.3,0,5-0.1c1.3,0,2-0.6,2.4-1.9c2.2-7.6-0.2-11-8-10.8C606.6,249.3,606.2,249.4,605.9,249.4z M607.9,244.3c7,0,7,0,7-5.9
		c0-6.1,0-6.1-6.8-6.1c-7.3,0-7.3,0-7.3,6.1C600.9,244.3,600.9,244.3,607.9,244.3z"/>
	<path style="fill:#C2C5BF;" d="M508.9,264.2c0.1-10.5,0.2-20.9,0.1-31.4c0-3.4,0.8-4.8,4.4-4.6c4.3,0.3,8.6,0.3,13,0
		c3.6-0.2,4.5,1.3,4.4,4.6c-0.1,10.5,0,20.9,0.1,31.4C523.6,264.2,516.2,264.2,508.9,264.2z M520.8,249.3c-7.8,0-7.5,0-7.9,6.5
		c-0.3,4.8,0.8,6.8,6.2,6.4c7.8-0.5,7.4-0.2,8-7.2C527.7,248.7,524.1,249,520.8,249.3z M521,232.2c-7.9,0-7.9,0-7.9,6.2
		c0,6.7,0,6.7,6.1,6.7c7.8,0,7.5-0.1,8-7C527.6,232.1,524.7,231.5,521,232.2z"/>
	<path style="fill:#AFB3A8;" d="M508.9,264.2c7.3,0,14.7,0,22,0c1.3,3.1-0.7,3.8-3.1,3.8c-5.3,0.1-10.6,0.1-15.9,0
		C509.6,268,507.7,267.3,508.9,264.2z"/>
	<path style="fill:#C2C5BF;" d="M496.9,318.9c0.4,4.8-0.6,10.6,0.5,16.4c0.4,2.2-0.8,3.6-3,3.6c-5.6,0.1-11.3,0.1-17,0
		c-2,0-3-1.4-2.8-3.4c1.2-10.6,0.3-21.2,0.4-31.9c0-3.5,1.1-4.7,4.6-4.5c4.5,0.3,9,0.2,13.5,0c2.8-0.1,3.9,0.9,3.8,3.7
		C496.8,307.9,496.9,312.9,496.9,318.9z M486.5,320.3c-7.4,0-7.4,0-7.4,6.2c0,6.6,0,6.6,7,6.6c7,0,7,0,7-6.4
		C493.1,320.3,493.1,320.3,486.5,320.3z M485.9,303.2c-6.7,0-6.7,0-6.7,6.1c0,5.9,0,5.9,7,5.9c7,0,7,0,7-5.9
		C493.1,303.2,493.1,303.2,485.9,303.2z"/>
	<path style="fill:#D25C45;" d="M584.9,268.2c-0.1-0.9,0.2-1.7,1-2.1C585.9,267,585.7,267.7,584.9,268.2z"/>
	<path style="fill:#7D7F77;" d="M520.2,315.3c-7.2,0-6.6-0.1-7.3-6.2c-0.7-6.5,3-5.9,7.2-5.9c6.9,0.1,6.9,0,6.9,6
		C527,315.3,527,315.3,520.2,315.3z"/>
	<path style="fill:#929DA5;" d="M523.3,321.1c6.9,0.4,2.8,5.7,3.6,8.6c0.8,2.9-1.5,3.4-3.9,3.4c-2.1-0.1-4.3-0.1-6.4,0
		c-2.9,0.2-3.8-1.3-3.4-3.9C517.2,327.4,520.5,324.6,523.3,321.1z"/>
	<path style="fill:#7D7F77;" d="M523.3,321.1c-2.8,3.5-6.1,6.3-10.2,8.1C513.2,320.3,510.9,320.8,523.3,321.1z"/>
	<path style="fill:#929DA5;" d="M573.8,333.1c-6.8,0-6.8,0-6.8-6.7c0-6.1,0-6.1,7.4-6.1c6.6,0,6.6,0,6.6,6.5
		C581,333.1,581,333.1,573.8,333.1z"/>
	<path style="fill:#7D7F77;" d="M574,315.1c-6.9,0-6.3-0.1-7-6c-0.7-6.5,3.1-5.8,7.2-5.9c4.2-0.1,7.4-0.1,6.8,5.8
		C580.4,315,580.9,315.1,574,315.1z"/>
	<path style="fill:#929DA5;" d="M608.1,320.3c6.9,0,6.9,0,6.8,6.7c0,6.1,0,6.1-7.4,6.1c-6.6,0-6.6,0-6.6-6.4
		C601,320.3,601,320.3,608.1,320.3z"/>
	<path style="fill:#7D7F77;" d="M608,315.1c-6.8,0-6.3-0.1-7-6c-0.7-6.6,3.2-5.7,7.3-5.8c4.3-0.2,7.3,0,6.7,5.9
		C614.3,315,614.8,315.1,608,315.1z"/>
	<path style="fill:#7D7F77;" d="M531.5,375.2c-10.5,0-10.5,0-10.5-10.5c0-7.5,0-7.5,7.5-7.5c0.2,0,0.3,0,0.5,0
		c13.4,0,13.3,0,13,13.5c-0.1,3.5-1.2,4.8-4.6,4.5C535.5,375.1,533.5,375.2,531.5,375.2z"/>
	<path style="fill:#7D7F77;" d="M561.4,375.2c-10.4,0-10.4,0-10.4-10.6c0-7.4,0-7.4,7.1-7.4c3,0,6,0.2,8.9-0.1
		c4.1-0.4,5.3,1.4,5,5.2c-0.2,2,0,4,0,6c0,6.9,0,6.9-6.6,6.9C564,375.2,562.7,375.2,561.4,375.2z"/>
	<path style="fill:#7D7F77;" d="M486,262.1c-6.9,0-6.9,0-6.9-6.6c0-6.1,0-6.1,7.4-6.1c6.5,0,6.5,0,6.5,6.4
		C493.1,262.1,493.1,262.1,486,262.1z"/>
	<path style="fill:#7D7F77;" d="M486.2,232.1c6.9,0,6.9,0,6.9,6c0,6.2,0,6.2-7.3,6.1c-6.7,0-6.7,0-6.7-6.3
		C479.1,232.1,479.1,232.1,486.2,232.1z"/>
	<path style="fill:#7D7F77;" d="M573.9,262.1c-6.8,0-6.8,0-6.8-6.5c0-6.2,0-6.2,7.2-6.2c6.9,0,6.9,0,6.9,6.5
		C581.1,262.1,581.1,262.1,573.9,262.1z"/>
	<path style="fill:#7D7F77;" d="M573.8,244.3c-6.8,0-6.8,0-6.8-6c0-6.1,0-6.1,7.2-6.1c6.9,0,6.9,0,6.9,6
		C581.1,244.3,581.1,244.3,573.8,244.3z"/>
	<path style="fill:#7D7F77;" d="M607.9,244.3c-7,0-7,0-7-5.9c0-6.1,0-6.1,7.3-6.1c6.8,0,6.8,0,6.8,6.1
		C615,244.3,615,244.3,607.9,244.3z"/>
	<path style="fill:#929DA5;" d="M605.9,249.4c0.3,0,0.7-0.1,1-0.1c7.8-0.1,10.2,3.2,8,10.8c-0.4,1.4-1.2,1.9-2.4,1.9
		c-1.7,0-3.3,0.1-5,0.1c-6.6,0-6.6,0-6.4-6.9C603.1,253.6,605.5,252.4,605.9,249.4z"/>
	<path style="fill:#7D7F77;" d="M605.9,249.4c-0.4,3-2.8,4.2-4.8,5.8C600.5,251.4,600.8,248.4,605.9,249.4z"/>
	<path style="fill:#7D7F77;" d="M520.8,249.3c3.3-0.3,6.9-0.6,6.3,5.8c-0.6,7-0.2,6.7-8,7.2c-5.3,0.3-6.4-1.6-6.2-6.4
		C513.3,249.3,513,249.3,520.8,249.3z"/>
	<path style="fill:#7D7F77;" d="M521,232.2c3.8-0.7,6.7-0.1,6.2,6c-0.6,6.9-0.2,7-8,7c-6.1,0-6.1,0-6.1-6.7
		C513,232.2,513,232.2,521,232.2z"/>
	<path style="fill:#7D7F77;" d="M486.5,320.3c6.6,0,6.6,0,6.6,6.3c0,6.4,0,6.4-7,6.4c-7,0-7,0-7-6.6
		C479.1,320.3,479.1,320.3,486.5,320.3z"/>
	<path style="fill:#7D7F77;" d="M485.9,303.2c7.2,0,7.2,0,7.2,6.1c0,5.9,0,5.9-7,5.9c-7,0-7,0-7-5.9
		C479.1,303.2,479.1,303.2,485.9,303.2z"/>
</g>
</svg>
